<svg xmlns="http://www.w3.org/2000/svg" xmlns:xlink="http://www.w3.org/1999/xlink" viewBox="0 0 100 100">
  <defs>
    <style>
      .cls-1 {
        clip-path: url(#clip-Artboard_3);
      }

      .cls-2 {
        fill: #fff;
      }
    </style>
    <clipPath id="clip-Artboard_3">
      <rect width="100" height="100"/>
    </clipPath>
  </defs>
  <g id="Artboard_3" data-name="Artboard – 3" class="cls-1">
    <rect class="cls-2" width="100" height="100"/>
    <g id="icon-facebook" transform="translate(35.733 22.901)">
      <g id="Group_82" data-name="Group 82" transform="translate(0)">
        <path id="Path_43" data-name="Path 43" d="M50.494.011,43.412,0c-7.957,0-13.1,5.276-13.1,13.442v6.2H23.191a1.114,1.114,0,0,0-1.114,1.114v8.979a1.114,1.114,0,0,0,1.114,1.114h7.121V53.5a1.113,1.113,0,0,0,1.114,1.114h9.291A1.114,1.114,0,0,0,41.831,53.5V30.846h8.327a1.113,1.113,0,0,0,1.114-1.114l0-8.979a1.115,1.115,0,0,0-1.114-1.114H41.831V14.385c0-2.525.6-3.807,3.891-3.807l4.771,0a1.114,1.114,0,0,0,1.113-1.114V1.125A1.114,1.114,0,0,0,50.494.011Z" transform="translate(-22.077)"/>
      </g>
    </g>
  </g>
</svg>
