<svg xmlns="http://www.w3.org/2000/svg" xmlns:xlink="http://www.w3.org/1999/xlink" viewBox="0 0 100 100">
  <defs>
    <style>
      .cls-1 {
        clip-path: url(#clip-Artboard_6);
      }

      .cls-2 {
        fill: #fff;
      }
    </style>
    <clipPath id="clip-Artboard_6">
      <rect width="100" height="100"/>
    </clipPath>
  </defs>
  <g id="Artboard_6" data-name="Artboard – 6" class="cls-1">
    <rect class="cls-2" width="100" height="100"/>
    <g id="rss-symbol" transform="translate(29.293 29.74)">
      <g id="Group_83" data-name="Group 83" transform="translate(0 0)">
        <path id="Path_45" data-name="Path 45" d="M6.081,292.382a5.866,5.866,0,0,0-4.308,1.774,6.118,6.118,0,0,0,0,8.615,5.867,5.867,0,0,0,4.308,1.774,5.865,5.865,0,0,0,4.307-1.774,6.118,6.118,0,0,0,0-8.615A5.865,5.865,0,0,0,6.081,292.382Z" transform="translate(0 -263.235)"/>
        <path id="Path_46" data-name="Path 46" d="M20.08,154.5a28,28,0,0,0-8.2-5.748,28.4,28.4,0,0,0-9.692-2.55H2.027a1.845,1.845,0,0,0-1.362.539A1.865,1.865,0,0,0,0,148.228V152.5a1.948,1.948,0,0,0,.522,1.362,1.924,1.924,0,0,0,1.314.633,19.7,19.7,0,0,1,12.4,5.844,19.7,19.7,0,0,1,5.844,12.4,1.98,1.98,0,0,0,2,1.838h4.276a1.865,1.865,0,0,0,1.488-.665,1.921,1.921,0,0,0,.539-1.521,28.412,28.412,0,0,0-2.55-9.691A28.006,28.006,0,0,0,20.08,154.5Z" transform="translate(0 -133.27)"/>
        <path id="Path_47" data-name="Path 47" d="M37.788,24.649a41.131,41.131,0,0,0-8.625-12.483A41.128,41.128,0,0,0,16.679,3.541,40.714,40.714,0,0,0,1.965.02H1.878A1.756,1.756,0,0,0,.587.548,1.735,1.735,0,0,0,0,1.9v4.2A1.8,1.8,0,0,0,.513,7.369a1.755,1.755,0,0,0,1.247.572,33.241,33.241,0,0,1,11.985,2.993A33.731,33.731,0,0,1,23.6,17.726a33.73,33.73,0,0,1,6.791,9.858,32.8,32.8,0,0,1,2.963,11.985,1.758,1.758,0,0,0,.572,1.247,1.835,1.835,0,0,0,1.306.514H39.43a1.734,1.734,0,0,0,1.35-.587,1.7,1.7,0,0,0,.529-1.379A40.709,40.709,0,0,0,37.788,24.649Z" transform="translate(0 -0.02)"/>
      </g>
    </g>
  </g>
</svg>
