<svg xmlns="http://www.w3.org/2000/svg" xmlns:xlink="http://www.w3.org/1999/xlink" viewBox="0 0 100 100">
  <defs>
    <style>
      .cls-1 {
        clip-path: url(#clip-Artboard_4);
      }

      .cls-2 {
        fill: #fff;
      }
    </style>
    <clipPath id="clip-Artboard_4">
      <rect width="100" height="100"/>
    </clipPath>
  </defs>
  <g id="Artboard_4" data-name="Artboard – 4" class="cls-1">
    <rect class="cls-2" width="100" height="100"/>
    <g id="twitter_1_" data-name="twitter (1)" transform="translate(23.026 27.74)">
      <path id="Path_44" data-name="Path 44" d="M54.434,53.193a22.33,22.33,0,0,1-6.414,1.758,11.2,11.2,0,0,0,4.91-6.179,22.357,22.357,0,0,1-7.092,2.71,11.178,11.178,0,0,0-19.03,10.186A31.7,31.7,0,0,1,3.791,50,11.18,11.18,0,0,0,7.247,64.91a11.122,11.122,0,0,1-5.058-1.4c0,.047,0,.093,0,.14A11.175,11.175,0,0,0,11.146,74.6,11.179,11.179,0,0,1,6.1,74.8a11.179,11.179,0,0,0,10.432,7.756,22.405,22.405,0,0,1-13.87,4.781A22.6,22.6,0,0,1,0,87.175,31.607,31.607,0,0,0,17.12,92.193c20.541,0,31.774-17.017,31.774-31.775q0-.726-.032-1.445A22.687,22.687,0,0,0,54.434,53.193Z" transform="translate(-0.001 -47.956)"/>
    </g>
  </g>
</svg>
